<svg width="48" height="48" viewBox="0 0 48 48" fill="none" xmlns="http://www.w3.org/2000/svg">
  <defs>
    <linearGradient id="jaskronLogoGrad" x1="4" y1="2" x2="44" y2="46" gradientUnits="userSpaceOnUse">
      <stop offset="0%" stop-color="#22d3ee" />
      <stop offset="55%" stop-color="#0891b2" />
      <stop offset="100%" stop-color="#1d4ed8" />
    </linearGradient>
  </defs>
  <path d="M24 2L43.3 13V35L24 46L4.7 35V13L24 2Z" fill="url(#jaskronLogoGrad)" />
  <path d="M24 2L43.3 13V35L24 46L4.7 35V13L24 2Z" stroke="white" stroke-opacity="0.15" stroke-width="1" fill="none" />
  <circle cx="12" cy="16" r="1.4" fill="white" fill-opacity="0.5" />
  <circle cx="36" cy="16" r="1.4" fill="white" fill-opacity="0.5" />
  <circle cx="36" cy="32" r="1.4" fill="white" fill-opacity="0.5" />
  <path d="M12 16H18M36 16H30M36 32H30" stroke="white" stroke-opacity="0.35" stroke-width="1.2" stroke-linecap="round" />
  <rect x="17" y="22" width="14" height="11" rx="2.5" fill="white" />
  <path d="M20 22V18.5C20 16 21.8 14 24 14C26.2 14 28 16 28 18.5V22" stroke="white" stroke-width="2.6" stroke-linecap="round" fill="none" />
  <circle cx="24" cy="26.5" r="1.8" fill="#0891b2" />
  <rect x="23.1" y="27.4" width="1.8" height="3" rx="0.9" fill="#0891b2" />
</svg>
